<svg width="20" height="19" viewBox="0 0 20 19" fill="none" xmlns="http://www.w3.org/2000/svg">
<path d="M18.0008 0.500244C18.2843 0.500244 18.5258 0.605244 18.7253 0.794244C18.9248 1.00424 19.0193 1.23524 19.0193 1.52924V17.7412C19.0193 18.0247 18.9143 18.2662 18.7253 18.4657C18.6297 18.5628 18.515 18.6391 18.3886 18.6897C18.2621 18.7403 18.1265 18.7641 17.9903 18.7597H13.3808V11.7247H15.7433L16.0688 8.94224H13.3808V7.15724C13.3808 6.73724 13.4858 6.40124 13.6748 6.18074C13.8638 5.97074 14.1998 5.84474 14.7248 5.84474H16.1633V3.37724C15.5333 3.31424 14.8298 3.27224 14.0528 3.27224C12.9923 3.27224 12.1313 3.58724 11.4803 4.21724C10.8293 4.84724 10.5038 5.72924 10.5038 6.87374V8.94224H8.15179V11.7247H10.5038V18.7597H1.78879C1.49479 18.7597 1.26379 18.6547 1.05379 18.4657C0.956708 18.3702 0.880469 18.2555 0.829871 18.129C0.779273 18.0025 0.75541 17.8669 0.759787 17.7307V1.52924C0.759787 1.24574 0.864787 1.00424 1.05379 0.804744C1.14937 0.707665 1.26402 0.631427 1.39052 0.580828C1.51702 0.53023 1.65262 0.506368 1.78879 0.510744H18.0008V0.500244Z" fill="#121212"/>
</svg>
