<svg width="46" height="45" viewBox="0 0 46 45" fill="none" xmlns="http://www.w3.org/2000/svg">
<path d="M22.6835 8.28711C23.8419 8.82176 25.0894 9.1782 26.1587 9.80196C28.1191 11.1386 28.9211 13.099 28.9211 15.4158C29.0102 16.1287 28.9211 16.8416 28.9211 17.4653C31.9508 17.9109 31.9508 17.9109 31.9508 20.8515V23.703C31.9508 26.5544 31.9508 26.5544 29.0993 26.8218V30.0297H44.4261V36.0891H42.8221V34.396H29.1885C29.0102 35.1089 28.9211 35.5544 28.7429 36.0891H7.7132C4.23796 35.2871 2.01023 33.2376 1.29736 29.6732V14.703C2.09934 11.2277 4.23796 9.08909 7.7132 8.28711H22.6835ZM27.4954 24.3267C27.4954 21.3861 27.5845 18.4455 27.4954 15.5049C27.4954 12.2079 25.2677 9.89107 22.0597 9.89107C17.5152 9.80196 12.8815 9.80196 8.33697 9.89107C5.21816 9.89107 2.99043 12.1188 2.90132 15.2376C2.81221 19.8713 2.81221 24.5049 2.90132 29.0495C2.90132 32.1683 5.12905 34.4851 8.24786 34.4851C14.2182 34.5742 20.2776 34.4851 26.2479 34.5742C27.2281 34.5742 27.5845 34.2178 27.5845 33.2376C27.4954 30.297 27.4954 27.2673 27.4954 24.3267ZM29.1885 32.9703H41.5746C42.0201 32.9703 42.4657 32.5247 42.8221 32.2574C42.4657 31.901 42.0201 31.3663 41.5746 31.3663C37.832 31.2772 34.0003 31.3663 30.2578 31.2772C29.1885 31.2772 28.7429 31.6336 29.1885 32.9703ZM29.0102 25.1287C29.1404 25.2688 29.2905 25.3889 29.4558 25.4851C29.8122 25.1287 30.5251 24.8614 30.5251 24.5049C30.7033 22.9901 30.6142 21.4752 30.6142 19.8713C30.5251 19.6039 30.0795 19.2475 29.7231 19.1584C29.5449 19.0693 29.0102 19.6039 29.0102 19.8713C28.9211 21.6534 29.0102 23.3465 29.0102 25.1287ZM22.7726 22.099C22.7726 26.3762 19.4756 29.7624 15.2875 29.7624C14.2886 29.7898 13.2945 29.6163 12.364 29.2521C11.4336 28.8879 10.5858 28.3405 9.87096 27.6423C9.15616 26.9442 8.58894 26.1095 8.20296 25.1878C7.81699 24.2662 7.62014 23.2764 7.6241 22.2772C7.59663 21.2784 7.77014 20.2842 8.13433 19.3538C8.49851 18.4233 9.04594 17.5755 9.74412 16.8607C10.4423 16.1459 11.277 15.5787 12.1986 15.1927C13.1203 14.8067 14.1101 14.6099 15.1092 14.6138C16.1081 14.5864 17.1022 14.7599 18.0327 15.1241C18.9631 15.4883 19.8109 16.0357 20.5257 16.7339C21.2405 17.432 21.8078 18.2667 22.1937 19.1884C22.5797 20.11 22.7766 21.0998 22.7726 22.099ZM21.3469 22.3663C21.5251 19.0693 18.7627 16.1287 15.3766 16.0396C11.9904 15.8614 9.04984 18.7129 8.96073 22.099C8.87162 25.3069 11.634 28.2475 14.931 28.4257C18.3172 28.5148 21.2578 25.7525 21.3469 22.3663Z" fill="#7F7F7F"/>
</svg>
