<svg width="48" height="48" viewBox="0 0 48 48" fill="none" xmlns="http://www.w3.org/2000/svg">
<path fill-rule="evenodd" clip-rule="evenodd" d="M19.0811 14.509H15.4313L14.5419 27.907C14.4881 28.6968 14.5972 29.4892 14.8625 30.235C15.1278 30.9809 15.5436 31.6642 16.0841 32.2426C16.6246 32.821 17.2782 33.2821 18.0044 33.5973C18.7305 33.9124 19.5138 34.0749 20.3054 34.0747H28.8293C29.6199 34.0748 30.4021 33.9126 31.1274 33.5982C31.8527 33.2837 32.5058 32.8237 33.0461 32.2466C33.5864 31.6694 34.0025 30.9875 34.2685 30.243C34.5346 29.4986 34.6449 28.7074 34.5927 27.9185L33.6918 14.509H19.0811ZM19.0811 15.664H16.517L15.6969 27.9878C15.6542 28.6193 15.7417 29.2528 15.9539 29.849C16.1662 30.4453 16.4987 30.9915 16.9308 31.454C17.3629 31.9164 17.8854 32.2851 18.4659 32.5372C19.0464 32.7894 19.6725 32.9195 20.3054 32.9197H28.8293C29.4631 32.9211 30.0905 32.7921 30.6724 32.5407C31.2543 32.2893 31.7782 31.9208 32.2115 31.4582C32.6449 30.9956 32.9784 30.4488 33.1913 29.8517C33.4043 29.2547 33.4921 28.6203 33.4493 27.9878L32.6177 15.664H30.0536V16.3916C30.0536 17.1121 29.9117 17.8255 29.636 18.4911C29.3603 19.1568 28.9561 19.7616 28.4467 20.271C27.9373 20.7804 27.3325 21.1846 26.6668 21.4603C26.0012 21.736 25.2878 21.8779 24.5673 21.8779C23.8469 21.8779 23.1335 21.736 22.4678 21.4603C21.8022 21.1846 21.1974 20.7804 20.688 20.271C20.1785 19.7616 19.7744 19.1568 19.4987 18.4911C19.223 17.8255 19.0811 17.1121 19.0811 16.3916V15.664ZM28.8986 15.664H20.2361V16.3916C20.2361 17.5404 20.6924 18.642 21.5047 19.4543C22.3169 20.2666 23.4186 20.7229 24.5673 20.7229C25.7161 20.7229 26.8177 20.2666 27.63 19.4543C28.4423 18.642 28.8986 17.5404 28.8986 16.3916V15.664Z" fill="#121212"/>
</svg>
