<svg width="46" height="45" viewBox="0 0 46 45" fill="none" xmlns="http://www.w3.org/2000/svg">
<path d="M38.9903 25.0396V36.2673H34.3567C34.4458 35.3762 34.4458 34.396 34.4458 33.5049C34.4458 32.5247 33.9111 32.0792 32.9309 32.0792H12.7923C11.8121 32.0792 11.2775 32.5247 11.2775 33.5049C11.2775 34.396 11.2775 35.3762 11.3666 36.2673H6.73291V25.0396C7.35667 22.6336 8.33687 20.4059 8.15865 17.8218C7.98043 15.3267 8.06954 12.9208 8.06954 10.4257C8.15865 8.73265 8.78242 8.10889 10.4755 8.10889H35.2478C36.9408 8.10889 37.6537 8.73265 37.6537 10.4257C37.6537 12.9208 37.7428 15.3267 37.5646 17.8218C37.3864 20.4059 38.3666 22.6336 38.9903 25.0396ZM8.15865 27H37.5646C38.0101 22.6336 36.1389 19.693 31.9507 18.802C25.965 17.4652 19.7582 17.4652 13.7725 18.802C9.5844 19.693 7.71311 22.5445 8.15865 27ZM9.31707 19.1584C11.0101 18.7128 11.4557 17.7326 11.3666 16.2178C11.1884 14.2574 11.5448 13.7227 13.5052 13.3663C16.4458 12.8317 19.3864 12.7426 22.2379 13.6336C22.5709 13.7951 22.952 13.8269 23.3072 13.7227C25.9804 12.8317 28.7428 12.9208 31.5052 13.2772C34.0002 13.5445 34.5349 14.0792 34.3567 16.5742C34.2676 18.0891 35.0695 18.7128 36.4953 19.2475C36.4953 16.396 36.4062 13.7227 36.4953 11.1386C36.4953 9.80196 36.0497 9.35641 34.7131 9.44552H11.0101C10.8319 9.44552 10.4755 9.35641 10.3864 9.44552C9.94083 9.71285 9.31707 10.0693 9.31707 10.4257C9.22796 13.2772 9.31707 16.2178 9.31707 19.1584ZM37.6537 28.6039H8.06954V33.4158C8.06954 35.1089 8.15865 35.198 10.0299 34.7525V33.1485C10.119 31.6336 10.921 30.7426 12.4359 30.7426H33.2874C34.8022 30.7426 35.6042 31.5445 35.6933 33.1485C35.6933 33.6831 35.7824 34.3069 35.7824 34.9307C36.5844 34.7525 37.5646 35.5544 37.6537 34.2178C37.7428 32.3465 37.6537 30.5643 37.6537 28.6039ZM12.7032 17.3762C15.9111 17.0198 18.9408 16.6633 22.0596 16.3069C22.2379 15.0594 22.2379 14.8812 21.0794 14.7921C19.0299 14.6138 16.8913 14.4356 14.8418 14.5247C12.6141 14.6138 12.3468 15.0594 12.7032 17.3762ZM33.02 17.3762C33.4656 15.3267 33.2874 14.7921 31.6834 14.7029C29.3666 14.5247 26.9606 14.7029 24.5547 14.7921C23.4854 14.7921 23.3963 15.594 23.6636 16.396C26.7824 16.6633 29.9012 17.0198 33.02 17.3762Z" fill="#7F7F7F"/>
</svg>
