<svg width="46" height="45" viewBox="0 0 46 45" fill="none" xmlns="http://www.w3.org/2000/svg">
<path d="M33.1003 27.0712V35.3494H11.9993V27.0712H10.0835V37.3009H35.0162V27.0712H33.1003Z" fill="#7F7F7F"/>
<path d="M4.56738 24.6297H8.88916V25.3693H4.56738V24.6297Z" fill="#7F7F7F"/>
<path d="M10.9033 24.6297H15.2251V25.3693H10.9033V24.6297Z" fill="#7F7F7F"/>
<path d="M17.23 24.6297H21.5518V25.3693H17.23V24.6297Z" fill="#7F7F7F"/>
<path d="M23.5566 24.6297H27.8784V25.3693H23.5566V24.6297Z" fill="#7F7F7F"/>
<path d="M29.8833 24.6297H34.2051V25.3693H29.8833V24.6297Z" fill="#7F7F7F"/>
<path d="M36.2192 24.6297H40.541V25.3693H36.2192V24.6297Z" fill="#7F7F7F"/>
<path d="M12.3648 23.1683L22.5499 13.9366L32.7351 23.1683H35.4529L22.5499 11.4772L9.64697 23.1683H12.3648Z" fill="#7F7F7F"/>
<path d="M22.5498 5.69403L15.7864 11.8247V8.6168H9.55771V17.4742L3.9082 22.598H6.61711L11.1973 18.4455L11.4735 18.196V16.7257V15.7366V10.5683H13.8617V13.5623V16.0218L15.7775 14.2841L22.5409 8.15344L38.4825 22.598H41.1914L22.5498 5.69403Z" fill="#7F7F7F"/>
</svg>
