<svg width="46" height="45" viewBox="0 0 46 45" fill="none" xmlns="http://www.w3.org/2000/svg">
<path d="M7.71338 12.4753V7.03961H29.9906C31.0599 7.66337 31.4164 8.55446 31.4164 9.80199C31.3272 11.1386 30.8817 12.3861 30.6144 13.7228C30.0797 16.0396 30.4362 18.7129 30.4362 21.297C32.1292 21.297 33.6441 21.3861 35.248 21.297C36.4064 21.2079 37.3866 21.4753 38.0995 22.4555V27.0891C37.4758 29.2277 36.5847 31.1881 34.8025 32.5248C33.7332 33.3267 33.0203 34.1287 33.1094 35.5545C33.1985 36.1782 32.3965 36.802 32.0401 37.4258H18.5847C17.5154 36.802 17.0698 35.9109 17.1589 34.6634C17.248 34.2178 17.0698 33.505 16.8025 33.2376C14.9312 31.5446 13.5946 29.4951 13.0599 26.9109H11.7233C9.05001 26.9109 8.69358 26.4654 8.69358 23.8812C8.69358 20.8515 8.69358 17.8218 8.60447 14.7921C8.60447 13.9901 7.98071 13.1881 7.71338 12.4753ZM36.1391 26.0198H14.9312C15.0203 28.1584 15.9114 29.8515 17.3371 31.099C18.6738 32.1683 19.3866 33.4159 19.1193 35.1089C19.1193 35.198 19.2084 35.2871 19.2975 35.3762H31.4164C31.4164 35.0198 31.5055 34.7525 31.5055 34.5743C31.2381 33.2376 31.7728 32.3465 33.0203 31.6337C34.8916 30.3861 36.05 28.5149 36.1391 26.0198ZM19.0302 25.0396V12.7426H10.654V25.0396H19.0302ZM20.0104 22.099H28.4758V12.8317H20.0104V22.099ZM9.67378 11.7624H29.3668V9.00001H9.67378V11.7624ZM20.0104 24.9505H36.05V23.1683H20.0104V24.9505ZM14.3074 14.6139H15.1094C15.7332 14.703 15.9114 15.0594 16.0896 15.4158C16.2678 15.5941 15.9114 16.2178 15.7332 16.3069C15.0203 16.4852 14.3074 16.2178 14.3074 15.7723C14.3074 15.2376 12.7035 15.3267 12.7035 15.3267L12.5253 15.1485C12.8955 14.9616 13.2836 14.8123 13.6837 14.703C13.8619 14.6139 14.2183 14.6139 14.3074 14.6139Z" fill="#7F7F7F"/>
</svg>
