<svg width="22" height="22" viewBox="0 0 22 22" fill="none" xmlns="http://www.w3.org/2000/svg">
<g clip-path="url(#clip0_2_499)">
<g clip-path="url(#clip1_2_499)">
<path fill-rule="evenodd" clip-rule="evenodd" d="M12.8437 12.9795C12.2501 13.5731 11.5453 14.044 10.7697 14.3653C9.99403 14.6866 9.16271 14.8519 8.32317 14.8519C7.48363 14.8519 6.65231 14.6866 5.87668 14.3653C5.10104 14.044 4.39629 13.5731 3.80264 12.9795C3.209 12.3858 2.73809 11.6811 2.41682 10.9054C2.09554 10.1298 1.93018 9.29848 1.93018 8.45894C1.93018 7.6194 2.09554 6.78808 2.41682 6.01245C2.73809 5.23681 3.209 4.53206 3.80264 3.93841C5.00156 2.73949 6.62764 2.06595 8.32317 2.06595C10.0187 2.06595 11.6448 2.73949 12.8437 3.93841C14.0426 5.13733 14.7162 6.76341 14.7162 8.45894C14.7162 10.1545 14.0426 11.7805 12.8437 12.9795ZM13.1311 14.2174C11.6442 15.4626 9.73258 16.0829 7.79791 15.9478C5.86324 15.8128 4.05626 14.933 2.75682 13.4934C1.45737 12.0537 0.766677 10.1663 0.829917 8.22798C0.893157 6.28964 1.70541 4.4513 3.09593 3.0994C4.48645 1.74751 6.34694 0.987352 8.28629 0.978727C10.2256 0.970102 12.0928 1.71368 13.4953 3.05315C14.8978 4.39263 15.7264 6.22367 15.8068 8.16137C15.8873 10.0991 15.2134 11.9925 13.9269 13.4437L19.8953 19.4121C19.9527 19.4621 19.9993 19.5234 20.0319 19.5921C20.0646 19.6609 20.0827 19.7357 20.0851 19.8118C20.0875 19.888 20.0741 19.9637 20.0458 20.0344C20.0175 20.1051 19.9749 20.1692 19.9207 20.2227C19.8665 20.2762 19.8018 20.3178 19.7307 20.3451C19.6596 20.3724 19.5836 20.3847 19.5076 20.3812C19.4315 20.3778 19.3569 20.3586 19.2886 20.325C19.2203 20.2913 19.1597 20.244 19.1105 20.1858L13.1311 14.2174Z" fill="#121212"/>
</g>
</g>
<defs>
<clipPath id="clip0_2_499">
<rect width="21" height="21" fill="white" transform="translate(0.100098 0.0699921)"/>
</clipPath>
<clipPath id="clip1_2_499">
<rect width="21" height="21" fill="white" transform="translate(0.100098 0.0699921)"/>
</clipPath>
</defs>
</svg>
