<svg width="46" height="45" viewBox="0 0 46 45" fill="none" xmlns="http://www.w3.org/2000/svg">
<path d="M23.9385 7.03961C31.4237 7.75248 35.0771 10.604 37.5722 15.5941C38.3742 17.2871 39.087 18.8911 39.2653 21.0297C39.2653 26.5545 39.4435 31.901 39.4435 37.3366H37.7504C37.7504 37.3366 37.6613 36.1782 37.6613 35.6436C37.5722 31.1881 37.7504 26.7327 37.5722 22.2772C37.394 15.4158 32.0474 9.71288 25.3643 8.9109C18.3247 8.10892 11.9088 12.297 10.1266 18.9802C9.6811 20.4951 9.50288 22.1881 9.50288 23.7921C9.41377 27.7129 9.50288 31.6337 9.41377 35.6436C9.41377 36.1782 9.41377 36.802 9.32466 37.3366H7.7207C7.7207 31.7228 7.89892 26.198 7.89892 20.5842C7.98803 20.3168 7.89892 20.0495 7.98803 19.6931C9.77021 12.9208 14.2257 7.75248 23.5821 7.03961M17.3445 34.1287C16.8989 36.2673 16.5425 36.6238 14.6712 36.6238C12.7108 36.6238 12.3544 36.0891 12.4435 34.1287C12.5326 31.4555 13.2455 24.7723 12.889 24.8614C11.6415 24.8614 11.5524 23.703 11.6415 22.9901C11.7306 22.6337 11.9088 22.1881 13.1563 22.1881C13.8692 22.1881 14.9385 21.9208 14.9385 21.9208L15.3841 20.4059L15.8296 18.7129C16.3643 16.9307 17.4336 16.2178 19.2158 16.1287H27.9484C29.7306 16.2178 30.6217 16.9307 31.1563 18.6238C31.3346 19.0693 32.0474 22.099 32.0474 22.099L33.6514 22.0099C33.6514 22.0099 34.7207 22.099 35.1662 22.4555C35.4336 22.5446 35.4336 22.9901 35.4336 23.0792C35.5227 23.4357 35.6118 23.7921 35.2554 24.0594C34.988 24.4158 34.2752 24.4158 34.1861 24.6832C34.0969 25.0396 34.6316 31.4555 34.7207 34.1287C34.7207 35.8218 34.4534 36.5347 32.9385 36.6238C30.7999 36.7129 30.1761 36.3564 29.9979 34.4852C29.9979 34.396 29.9088 34.3069 29.8197 34.1287H17.3445ZM12.2653 23.703C12.2653 23.9703 13.691 24.4158 13.691 24.4158C13.691 24.4158 13.8692 25.6634 13.7801 26.6436C13.6019 28.3366 13.6019 29.9406 13.4237 31.6337C13.3346 32.6139 13.5128 33.1485 14.493 33.1485C18.9484 33.0594 23.5821 33.1485 28.0375 33.1485H33.7405C33.6514 31.099 33.5623 28.8713 33.4732 27C33.3841 25.8416 32.3148 24.3267 34.5425 23.703C33.3841 23.3465 32.5821 23.1683 31.6019 23.9703C30.889 24.505 29.8197 24.9505 28.9286 25.0396C25.3643 25.1287 21.7999 25.1287 18.2356 25.0396C17.2554 24.9505 16.186 24.505 15.4732 23.8812C15.1167 23.6139 14.493 22.901 14.493 22.901C14.0474 22.8119 12.9781 22.7228 12.4435 22.901C12.1761 22.9901 12.2653 23.4357 12.2653 23.703ZM23.4039 23.8812C23.4039 23.8812 27.5029 23.8812 29.4633 23.7921C30.7999 23.703 31.2455 23.0792 30.889 21.7426C30.6217 20.8515 30.1761 19.0693 30.1761 19.0693C29.9088 17.8218 29.1068 17.3762 27.8593 17.3762H21.7108C16.7207 17.3762 17.7009 17.1089 16.3643 21.3861C15.8296 23.1683 16.2752 23.7921 18.1464 23.8812H23.4039ZM16.3643 34.1287H13.3346C13.3346 34.1287 13.691 35.4654 14.1365 35.5545C14.5821 35.6436 15.6514 35.5545 15.6514 35.5545L16.3643 34.1287ZM12.6217 23.6139C13.691 23.3465 14.493 23.1683 15.4732 23.8812C16.186 24.505 17.2554 24.6832 18.2356 24.6832C21.768 24.8614 25.3071 24.8614 28.8395 24.6832C29.3742 24.6832 30.4435 24.5941 31.2455 24.0594C31.8692 23.703 32.2257 23.1683 32.5821 22.901C32.5821 22.901 33.9187 22.6337 34.4534 22.901C34.7207 22.9901 34.7207 23.3465 34.7207 23.703C34.3175 23.9621 33.9011 24.2 33.4732 24.4158C33.4732 24.4158 33.3841 26.198 33.3841 27C33.5623 28.8713 33.6514 31.099 33.7405 33.1485C31.691 33.1485 29.9088 32.7921 28.0375 32.7921C23.5821 32.8812 19.1266 32.7921 14.6712 32.8812C13.691 32.8812 13.3346 32.6139 13.4237 31.6337C13.5128 29.9406 13.6019 28.3366 13.7801 26.6436C13.8692 25.7525 14.2257 25.2178 14.1365 24.8614C14.0474 24.4158 13.3346 24.1485 12.6217 23.6139ZM32.6712 29.5842C32.6712 28.5149 31.6019 27.5347 30.5326 27.5347C29.9968 27.5795 29.4976 27.8244 29.1343 28.2207C28.771 28.617 28.5703 29.1356 28.5722 29.6733C28.5722 30.7426 29.5524 31.6337 30.6217 31.6337C31.691 31.6337 32.6712 30.5644 32.6712 29.5842ZM18.592 29.6733C18.592 28.5149 17.7009 27.6238 16.5425 27.5347C15.4732 27.5347 14.493 28.5149 14.493 29.5842C14.4039 30.5644 15.4732 31.6337 16.5425 31.6337C17.5227 31.6337 18.592 30.7426 18.592 29.6733ZM23.5821 28.9604C24.3554 28.9735 25.1289 28.9438 25.8989 28.8713C26.1662 28.8713 26.4336 28.5149 26.6118 28.3366C26.4336 28.0693 26.2554 27.7129 25.988 27.7129H21.1761C20.9088 27.7129 20.7306 28.0693 20.4633 28.2475C20.7306 28.5149 20.9979 28.8713 21.1761 28.8713C21.9759 28.9455 22.7791 28.9752 23.5821 28.9604ZM23.6712 30.297H21.1761C20.9088 30.3861 20.7306 30.6535 20.4633 30.8317C20.7306 31.099 20.9088 31.4555 21.087 31.4555H25.988C26.1662 31.4555 26.4336 31.099 26.6118 30.9208C26.4336 30.7426 26.1662 30.3861 25.8989 30.297H23.6712ZM33.9187 34.1287C33.9944 34.3002 34.0259 34.4879 34.0103 34.6747C33.9947 34.8615 33.9326 35.0414 33.8296 35.198C33.7405 35.8218 32.3148 35.6436 31.8692 35.6436C31.5128 35.6436 30.9781 34.1287 30.9781 34.1287H33.9187ZM32.493 29.4951C32.493 30.5644 31.691 31.4555 30.6217 31.4555C29.5524 31.5446 28.6613 30.6535 28.6613 29.5842C28.6575 29.0696 28.8481 28.5726 29.1951 28.1925C29.5421 27.8125 30.0198 27.5775 30.5326 27.5347C31.6019 27.5347 32.493 28.5149 32.493 29.4951ZM30.6217 28.5149C30.087 28.5149 29.6415 29.0495 29.6415 29.4059C29.6415 29.8515 29.9088 30.5644 30.6217 30.5644C31.2455 30.5644 31.691 30.1188 31.691 29.5842C31.691 29.1386 31.2455 28.5149 30.6217 28.5149ZM18.5029 29.5842C18.4138 30.6535 17.6118 31.5446 16.5425 31.4555C15.4732 31.4555 14.5821 30.5644 14.5821 29.5842C14.5821 28.5149 15.4732 27.7129 16.5425 27.7129C17.6118 27.7129 18.5029 28.5149 18.5029 29.5842ZM17.5227 29.5842C17.5227 28.9604 16.8989 28.604 16.5425 28.604C16.2752 28.604 15.6514 28.7822 15.5623 29.5842C15.5623 30.2079 16.0078 30.5644 16.7207 30.5644C17.3445 30.5644 17.5227 30.1188 17.5227 29.5842ZM23.5821 28.9604C22.7791 28.9752 21.9759 28.9455 21.1761 28.8713C20.9088 28.8713 20.9088 27.7129 21.1761 27.7129H25.988C26.2554 27.7129 26.1662 28.8713 25.8989 28.8713C25.1289 28.9438 24.3554 28.9735 23.5821 28.9604ZM23.6712 30.297H25.8989C26.1662 30.3861 26.1662 31.4555 25.988 31.4555H21.087C20.9088 31.4555 20.9088 30.3861 21.1761 30.297H23.6712Z" fill="#7F7F7F"/>
</svg>
