<svg width="20" height="20" viewBox="0 0 20 20" fill="none" xmlns="http://www.w3.org/2000/svg">
<path d="M10.1585 2.51884C12.6155 2.51884 12.9095 2.52934 13.8755 2.57134C14.7785 2.61334 15.2615 2.76034 15.587 2.88634C16.0175 3.06484 16.322 3.25384 16.6475 3.57934C16.9625 3.89434 17.1725 4.20934 17.33 4.62934C17.456 4.96534 17.6135 5.44834 17.645 6.35134C17.6975 7.31734 17.708 7.61134 17.708 10.0683C17.708 12.5253 17.6975 12.8193 17.6555 13.7853C17.6507 14.3698 17.5441 14.949 17.3405 15.4968C17.162 15.9273 16.973 16.2318 16.6475 16.5573C16.3325 16.8723 16.0175 17.0823 15.587 17.2503C15.2615 17.3763 14.7785 17.5233 13.8755 17.5653C12.9095 17.6073 12.6155 17.6178 10.1585 17.6178C7.70145 17.6178 7.40745 17.6178 6.43095 17.5653C5.85001 17.5594 5.2745 17.4528 4.72995 17.2503C4.28895 17.0823 3.99495 16.8828 3.66945 16.5573C3.34395 16.2423 3.14445 15.9273 2.97645 15.5073C2.77325 14.9557 2.66669 14.3732 2.66145 13.7853C2.61945 12.8193 2.60895 12.5253 2.60895 10.0683C2.60895 7.61134 2.60895 7.31734 2.66145 6.35134C2.70345 5.44834 2.85045 4.96534 2.97645 4.63984C3.14445 4.20934 3.34395 3.90484 3.66945 3.57934C3.98445 3.26434 4.29945 3.05434 4.71945 2.89684C5.05545 2.77084 5.53845 2.61334 6.43095 2.58184C7.40745 2.52934 7.69095 2.51884 10.1585 2.51884ZM10.1585 0.859841C7.65945 0.859841 7.34445 0.870341 6.35745 0.912341C5.38095 0.954341 4.70895 1.12234 4.12095 1.33234C3.52245 1.57384 3.00795 1.89934 2.49345 2.40334C1.99995 2.91784 1.68495 3.43234 1.43295 4.03084C1.20195 4.61884 1.04445 5.29084 1.01295 6.26734C0.949951 7.26484 0.949951 7.57984 0.949951 10.0683C0.949951 12.5568 0.960451 12.8823 1.00245 13.8588C1.04445 14.8458 1.21245 15.5073 1.42245 16.0953C1.66395 16.7043 1.98945 17.2188 2.49345 17.7333C3.00795 18.2373 3.52245 18.5523 4.12095 18.7938C4.70895 19.0248 5.38095 19.1823 6.35745 19.2138C7.34445 19.2663 7.65945 19.2768 10.1585 19.2768C12.668 19.2768 12.9725 19.2663 13.9595 19.2243C14.936 19.1823 15.608 19.0143 16.196 18.7938C16.8094 18.5635 17.365 18.2015 17.8235 17.7333C18.338 17.2188 18.653 16.7043 18.884 16.0953C19.115 15.5178 19.2725 14.8458 19.3145 13.8588C19.3565 12.8823 19.367 12.5673 19.367 10.0683C19.367 7.55884 19.367 7.25434 19.3145 6.26734C19.3012 5.50353 19.1592 4.74742 18.8945 4.03084C18.6611 3.4164 18.2954 2.86078 17.8235 2.40334C17.3633 1.93724 16.8082 1.57556 16.196 1.34284C15.4802 1.07373 14.724 0.928155 13.9595 0.912341C12.6931 0.8616 11.4257 0.844094 10.1585 0.859841Z" fill="#121212"/>
<path d="M10.1894 5.05969C8.9364 5.05969 7.73468 5.55746 6.84865 6.44349C5.96261 7.32952 5.46484 8.53125 5.46484 9.78429C5.46484 11.0373 5.96261 12.239 6.84865 13.1251C7.73468 14.0111 8.9364 14.5089 10.1894 14.5089C11.4425 14.5089 12.6442 14.0111 13.5302 13.1251C14.4163 12.239 14.914 11.0373 14.914 9.78429C14.914 8.53125 14.4163 7.32952 13.5302 6.44349C12.6442 5.55746 11.4425 5.05969 10.1894 5.05969ZM10.1894 12.8605C9.78616 12.8605 9.38682 12.7811 9.01423 12.6268C8.64164 12.4724 8.30309 12.2462 8.01793 11.9611C7.73276 11.6759 7.50655 11.3373 7.35222 10.9648C7.19789 10.5922 7.11845 10.1928 7.11845 9.78954C7.11845 9.38625 7.19789 8.98691 7.35222 8.61432C7.50655 8.24173 7.73276 7.90319 8.01793 7.61802C8.30309 7.33285 8.64164 7.10664 9.01423 6.95231C9.38682 6.79798 9.78616 6.71855 10.1894 6.71855C11.0039 6.71855 11.785 7.0421 12.361 7.61802C12.9369 8.19394 13.2604 8.97506 13.2604 9.78954C13.2604 10.604 12.9369 11.3851 12.361 11.9611C11.785 12.537 11.0039 12.8605 10.1894 12.8605ZM15.0505 6.1096C15.3429 6.1096 15.6233 5.99345 15.8301 5.78671C16.0368 5.57997 16.1529 5.29957 16.1529 5.00719C16.1529 4.71482 16.0368 4.43441 15.8301 4.22767C15.6233 4.02093 15.3429 3.90479 15.0505 3.90479C14.7582 3.90479 14.4778 4.02093 14.271 4.22767C14.0643 4.43441 13.9481 4.71482 13.9481 5.00719C13.9481 5.29957 14.0643 5.57997 14.271 5.78671C14.4778 5.99345 14.7582 6.1096 15.0505 6.1096Z" fill="#121212"/>
</svg>
