<svg width="232" height="113" viewBox="0 0 232 113" fill="none" xmlns="http://www.w3.org/2000/svg">
<path d="M15.4759 48.5L62 12.5" stroke="black" stroke-width="7"/>
<path d="M16.7827 107.032L16.5 45" stroke="black" stroke-width="7"/>
<path d="M104.789 108.041L104.296 46" stroke="black" stroke-width="7"/>
<path d="M177.802 109.423L177.161 78.2902" stroke="black" stroke-width="7"/>
<path d="M131.462 58.1362L131.476 26.9967" stroke="black" stroke-width="7"/>
<path d="M106 61.4381L155.004 61.4335" stroke="black" stroke-width="7"/>
<path d="M215.789 110.133L215.149 79" stroke="black" stroke-width="7"/>
<line x1="58.1368" y1="12.228" x2="106.137" y2="49.228" stroke="black" stroke-width="7"/>
<line x1="129.903" y1="24.0624" x2="217.903" y2="81.0624" stroke="black" stroke-width="7"/>
<line x1="0.984798" y1="109.5" x2="231.213" y2="108.5" stroke="black" stroke-width="7"/>
<line x1="149.814" y1="60.2897" x2="179.082" y2="79.8944" stroke="black" stroke-width="7"/>
<rect x="34.5" y="57.5" width="14" height="14" stroke="black" stroke-width="3"/>
<rect x="34.5" y="84.5" width="14" height="14" stroke="black" stroke-width="3"/>
<rect x="190.5" y="84.5" width="14" height="14" stroke="black" stroke-width="3"/>
<rect x="67.5" y="84.5" width="14" height="24" stroke="black" stroke-width="3"/>
<rect x="121.5" y="84.5" width="38" height="24" stroke="black" stroke-width="3"/>
<line x1="14.5" y1="34" x2="14.5" y2="46" stroke="black" stroke-width="3"/>
<line x1="72.1422" y1="2.18164" x2="60.9238" y2="10.9537" stroke="black" stroke-width="3"/>
<line x1="129.5" y1="29" x2="129.5" y2="8" stroke="black" stroke-width="3"/>
<line x1="134.164" y1="24.4894" x2="117.124" y2="12.2172" stroke="black" stroke-width="3"/>
<line x1="155.168" y1="61.2481" x2="143.168" y2="53.2481" stroke="black" stroke-width="3"/>
<line x1="164.422" y1="59.5" x2="150" y2="59.5" stroke="black" stroke-width="3"/>
<path d="M187.36 82.432L175 75" stroke="black" stroke-width="3"/>
<path d="M218 78.4221V64" stroke="black" stroke-width="3"/>
<path d="M217 78L229.048 85.9273" stroke="black" stroke-width="3"/>
<line x1="107.5" y1="34" x2="107.5" y2="48.2408" stroke="black" stroke-width="3"/>
<line x1="106.94" y1="45.831" x2="118.038" y2="54.7541" stroke="black" stroke-width="3"/>
<line x1="48.9671" y1="1.85343" x2="59.8526" y2="11.0354" stroke="black" stroke-width="3"/>
<line x1="14.8988" y1="46.2009" x2="2.89885" y2="55.1814" stroke="black" stroke-width="3"/>
</svg>
