<svg width="821" height="115" viewBox="0 0 821 115" fill="none" xmlns="http://www.w3.org/2000/svg">
<path d="M15.4759 50.5L62 14.5" stroke="black" stroke-width="7"/>
<path d="M16.7827 109.032L16.5 47" stroke="black" stroke-width="7"/>
<path d="M104.789 110.041L104.296 48" stroke="black" stroke-width="7"/>
<path d="M177.802 111.423L177.161 80.2902" stroke="black" stroke-width="7"/>
<path d="M131.462 60.1362L131.476 28.9967" stroke="black" stroke-width="7"/>
<path d="M106 63.4381L155.004 63.4335" stroke="black" stroke-width="7"/>
<path d="M215.789 112.133L215.149 81" stroke="black" stroke-width="7"/>
<line x1="58.1368" y1="14.228" x2="106.137" y2="51.228" stroke="black" stroke-width="7"/>
<line x1="129.903" y1="26.0624" x2="217.903" y2="83.0624" stroke="black" stroke-width="7"/>
<line x1="0.984798" y1="111.5" x2="231.213" y2="110.5" stroke="black" stroke-width="7"/>
<line x1="149.814" y1="62.2897" x2="179.082" y2="81.8944" stroke="black" stroke-width="7"/>
<rect x="34.5" y="59.5" width="14" height="14" stroke="black" stroke-width="3"/>
<rect x="34.5" y="86.5" width="14" height="14" stroke="black" stroke-width="3"/>
<rect x="190.5" y="86.5" width="14" height="14" stroke="black" stroke-width="3"/>
<rect x="67.5" y="86.5" width="14" height="24" stroke="black" stroke-width="3"/>
<rect x="121.5" y="86.5" width="38" height="24" stroke="black" stroke-width="3"/>
<line x1="14.5" y1="29" x2="14.5" y2="48" stroke="black" stroke-width="3"/>
<line x1="74.9147" y1="2.18882" x2="60.9146" y2="12.9609" stroke="black" stroke-width="3"/>
<line x1="129.5" y1="31" x2="129.5" y2="10" stroke="black" stroke-width="3"/>
<line x1="134.164" y1="26.4894" x2="117.124" y2="14.2172" stroke="black" stroke-width="3"/>
<line x1="155.168" y1="63.2481" x2="143.168" y2="55.2481" stroke="black" stroke-width="3"/>
<line x1="164.422" y1="61.5" x2="150" y2="61.5" stroke="black" stroke-width="3"/>
<path d="M187.36 84.432L175 77" stroke="black" stroke-width="3"/>
<path d="M218 80.4221V66" stroke="black" stroke-width="3"/>
<path d="M217 80L229.048 87.9273" stroke="black" stroke-width="3"/>
<line x1="107.5" y1="36" x2="107.5" y2="50.2408" stroke="black" stroke-width="3"/>
<line x1="106.94" y1="47.831" x2="118.038" y2="56.7541" stroke="black" stroke-width="3"/>
<line x1="45.9408" y1="1.83173" x2="59.8262" y2="13.0137" stroke="black" stroke-width="3"/>
<line x1="14.8988" y1="48.2009" x2="2.89885" y2="57.1814" stroke="black" stroke-width="3"/>
<path d="M258.757 113H240.663V48.9307H258.757V74.296H272.807V48.9307H290.901V113H272.807V86.8693H258.757V113ZM320.736 107.588C322.34 107.588 323.561 106.932 324.399 105.62C325.273 104.272 325.711 102.431 325.711 100.099V82.824C325.711 75.7173 324.034 72.164 320.681 72.164C319.114 72.164 317.893 72.8018 317.019 74.0773C316.144 75.3529 315.707 77.1569 315.707 79.4893V97.256C315.707 104.144 317.383 107.588 320.736 107.588ZM320.299 114.148C311.953 114.148 305.849 112.253 301.985 108.463C298.122 104.672 296.191 98.6227 296.191 90.3133C296.191 82.0769 298.141 75.8813 302.04 71.7267C305.94 67.5356 312.281 65.44 321.064 65.44C329.629 65.44 335.806 67.4444 339.596 71.4533C343.423 75.4258 345.336 81.4573 345.336 89.548C345.336 97.9302 343.313 104.126 339.268 108.135C335.259 112.144 328.936 114.148 320.299 114.148ZM378.023 105.729C377.805 106.24 377.349 106.914 376.657 107.752C376.001 108.59 375.126 109.52 374.033 110.54C372.939 111.524 371.591 112.362 369.987 113.055C368.384 113.784 366.762 114.148 365.122 114.148C359.983 114.148 356.302 112.617 354.079 109.556C351.893 106.495 350.799 101.392 350.799 94.2493V74.788L348.886 72.82V66.5333H368.73V97.6933C368.694 99.3333 368.967 100.554 369.55 101.356C370.133 102.121 371.19 102.504 372.721 102.504C372.939 102.504 373.14 102.504 373.322 102.504C373.504 102.468 373.686 102.431 373.869 102.395C374.051 102.322 374.197 102.267 374.306 102.231C374.452 102.194 374.616 102.14 374.798 102.067C374.98 101.957 375.126 101.866 375.235 101.793C375.345 101.72 375.49 101.629 375.673 101.52C375.855 101.374 375.982 101.265 376.055 101.192C376.165 101.119 376.31 101.01 376.493 100.864C376.711 100.682 376.875 100.554 376.985 100.481V74.788L374.033 72.82V66.5333H394.861V113H379.718L378.023 105.729ZM416.759 114.148C413.333 114.148 409.871 113.583 406.372 112.453C402.873 111.287 400.632 110.157 399.648 109.064L401.069 100.263C402.308 101.465 404.367 102.504 407.247 103.379C410.162 104.253 413.132 104.691 416.157 104.691C418.344 104.691 419.838 104.417 420.64 103.871C421.478 103.324 421.897 102.559 421.897 101.575C421.897 100.627 421.168 99.7889 419.711 99.06C418.253 98.2947 415.884 97.42 412.604 96.436C404.112 93.8849 399.867 88.6004 399.867 80.5827C399.867 77.3027 400.814 74.4964 402.709 72.164C404.604 69.7951 407.028 68.0822 409.98 67.0253C412.932 65.9684 416.23 65.44 419.875 65.44C426.107 65.44 430.699 66.588 433.651 68.884C434.307 69.5036 434.635 69.8133 434.635 69.8133L432.229 77.6307C429.824 75.2618 426.507 74.0773 422.28 74.0773C418.818 74.0773 417.087 75.0978 417.087 77.1387C417.087 77.7218 417.214 78.2138 417.469 78.6147C417.724 78.9791 418.143 79.3071 418.727 79.5987C419.346 79.8538 419.947 80.0724 420.531 80.2547C421.114 80.4004 421.934 80.6191 422.991 80.9107C424.047 81.1658 424.959 81.4027 425.724 81.6213C429.988 83.0427 433.086 85.0471 435.017 87.6347C436.949 90.2222 437.915 93.4476 437.915 97.3107C437.915 108.536 430.863 114.148 416.759 114.148ZM467.126 84.7373C467.126 80.1089 466.889 76.8289 466.415 74.8973C465.941 72.9658 465.067 72 463.791 72C462.698 72 461.805 72.2004 461.112 72.6013C460.42 72.9658 459.91 73.5671 459.582 74.4053C459.254 75.2071 459.035 76.0453 458.926 76.92C458.853 77.7582 458.816 78.8333 458.816 80.1453V84.7373H467.126ZM462.752 114.148C458.671 114.148 455.117 113.528 452.092 112.289C449.104 111.05 446.735 109.319 444.986 107.096C443.273 104.873 442.016 102.376 441.214 99.6067C440.412 96.8004 440.011 93.6844 440.011 90.2587C440.011 82.0951 442.088 75.9178 446.243 71.7267C450.398 67.5356 456.211 65.44 463.682 65.44C470.861 65.44 476 67.1347 479.098 70.524C482.196 73.8769 483.744 79.2889 483.744 86.76V92.828H458.762V93.8667C458.762 96.0169 458.98 97.7844 459.418 99.1693C459.892 100.554 460.566 101.575 461.44 102.231C462.315 102.887 463.208 103.324 464.119 103.543C465.03 103.761 466.142 103.871 467.454 103.871C468.729 103.871 470.096 103.707 471.554 103.379C473.048 103.051 474.542 102.54 476.036 101.848C477.567 101.156 478.843 100.336 479.863 99.388L483.088 104.909C481.74 107.096 479.754 108.936 477.13 110.431C474.542 111.888 472.046 112.872 469.64 113.383C467.235 113.893 464.939 114.148 462.752 114.148ZM507.16 113H489.065V48.9307H496.281C498.213 48.9307 501.128 48.8578 505.028 48.712C508.927 48.5298 512.134 48.4387 514.649 48.4387C521.719 48.4387 527.077 50.3156 530.721 54.0693C534.365 57.8231 536.188 63.4538 536.188 70.9613C536.188 75.4804 535.586 79.5987 534.384 83.316C533.217 86.9969 531.632 90.0218 529.628 92.3907C527.623 94.7596 525.345 96.5818 522.794 97.8573C520.243 99.1329 517.546 99.7707 514.704 99.7707C514.339 99.7707 513.957 99.7707 513.556 99.7707C513.191 99.7707 512.845 99.7707 512.517 99.7707C512.225 99.7342 511.861 99.716 511.424 99.716C511.023 99.6796 510.695 99.6613 510.44 99.6613C510.221 99.6249 509.893 99.6067 509.456 99.6067C509.055 99.5702 508.781 99.552 508.636 99.552C508.49 99.552 508.217 99.5338 507.816 99.4973C507.415 99.4609 507.196 99.4427 507.16 99.4427V113ZM518.257 68.556C518.257 65.8591 517.528 63.6724 516.07 61.996C514.613 60.3196 512.517 59.4813 509.784 59.4813H507.16V87.908H509.182C512.061 87.908 514.285 86.9422 515.852 85.0107C517.455 83.0791 518.257 80.2911 518.257 76.6467V68.556ZM540.315 113V48.9307H558.41V98.3493H574.7V113H540.315ZM611.147 113L608.687 102.777H593.161L591.084 113H575.012L591.685 53.3587L590.373 48.9307H612.951L631.209 113H611.147ZM600.213 67.736L595.403 91.6253H606.008L600.213 67.736ZM650.75 113H633.366V54.0693L630.687 48.9307H650.804L660.863 69.704L670.484 90.4227L667.806 66.096V48.9307H685.244V113H668.571L655.56 87.6893L647.524 71.836L650.75 92.828V113ZM711.702 114.148C708.896 114.148 706.272 113.893 703.83 113.383C701.425 112.909 699.402 112.271 697.762 111.469C696.122 110.668 694.774 109.902 693.717 109.173C692.696 108.444 691.84 107.716 691.148 106.987L692.514 93.7027C694.008 95.7071 696.013 97.4564 698.528 98.9507C701.042 100.408 703.757 101.137 706.673 101.137C709.588 101.137 711.684 100.828 712.96 100.208C714.272 99.5884 714.928 98.4587 714.928 96.8187C714.928 95.0693 714.18 93.5751 712.686 92.336C711.228 91.0969 708.696 89.6027 705.088 87.8533C703.776 87.1973 702.664 86.6142 701.753 86.104C700.842 85.5573 699.621 84.6827 698.09 83.48C696.596 82.2409 695.375 80.9653 694.428 79.6533C693.48 78.3049 692.642 76.592 691.913 74.5147C691.184 72.4009 690.82 70.1413 690.82 67.736C690.82 54.7253 698.163 48.22 712.85 48.22C715.183 48.22 717.369 48.4751 719.41 48.9853C721.488 49.4591 723.109 49.9876 724.276 50.5707C725.442 51.1538 726.499 51.8462 727.446 52.648C728.43 53.4133 729.05 53.96 729.305 54.288C729.56 54.5796 729.742 54.8164 729.852 54.9987L727.118 65.5493C725.697 63.8729 723.911 62.6338 721.761 61.832C719.647 60.9938 717.624 60.5747 715.693 60.5747C711.028 60.5747 708.696 62.0324 708.696 64.948C708.696 65.7133 708.841 66.4058 709.133 67.0253C709.424 67.6449 709.898 68.2098 710.554 68.72C711.21 69.2302 711.812 69.6676 712.358 70.032C712.941 70.3964 713.725 70.852 714.709 71.3987C715.729 71.9089 716.495 72.328 717.005 72.656C722.326 74.9156 726.225 77.5942 728.704 80.692C731.218 83.7898 732.476 87.5618 732.476 92.008C732.476 99.224 730.69 104.727 727.118 108.517C723.583 112.271 718.444 114.148 711.702 114.148Z" fill="black"/>
</svg>
