<svg width="232" height="157" viewBox="0 0 232 157" fill="none" xmlns="http://www.w3.org/2000/svg">
<path d="M15.4759 48.5L62 12.5" stroke="black" stroke-width="7"/>
<path d="M16.7827 107.032L16.5 45" stroke="black" stroke-width="7"/>
<path d="M104.789 108.041L104.296 46" stroke="black" stroke-width="7"/>
<path d="M177.802 109.423L177.161 78.2902" stroke="black" stroke-width="7"/>
<path d="M131.462 58.1362L131.476 26.9967" stroke="black" stroke-width="7"/>
<path d="M106 61.4381L155.004 61.4335" stroke="black" stroke-width="7"/>
<path d="M215.789 110.133L215.149 79" stroke="black" stroke-width="7"/>
<line x1="58.1368" y1="12.228" x2="106.137" y2="49.228" stroke="black" stroke-width="7"/>
<line x1="129.903" y1="24.0624" x2="217.903" y2="81.0624" stroke="black" stroke-width="7"/>
<line x1="0.984798" y1="109.5" x2="231.213" y2="108.5" stroke="black" stroke-width="7"/>
<line x1="149.814" y1="60.2897" x2="179.082" y2="79.8944" stroke="black" stroke-width="7"/>
<rect x="34.5" y="57.5" width="14" height="14" stroke="black" stroke-width="3"/>
<rect x="34.5" y="84.5" width="14" height="14" stroke="black" stroke-width="3"/>
<rect x="190.5" y="84.5" width="14" height="14" stroke="black" stroke-width="3"/>
<rect x="67.5" y="84.5" width="14" height="24" stroke="black" stroke-width="3"/>
<rect x="121.5" y="84.5" width="38" height="24" stroke="black" stroke-width="3"/>
<line x1="14.5" y1="34" x2="14.5" y2="46" stroke="black" stroke-width="3"/>
<line x1="72.1422" y1="2.18164" x2="60.9238" y2="10.9537" stroke="black" stroke-width="3"/>
<line x1="129.5" y1="29" x2="129.5" y2="8" stroke="black" stroke-width="3"/>
<line x1="134.164" y1="24.4894" x2="117.124" y2="12.2172" stroke="black" stroke-width="3"/>
<line x1="155.168" y1="61.2481" x2="143.168" y2="53.2481" stroke="black" stroke-width="3"/>
<line x1="164.422" y1="59.5" x2="150" y2="59.5" stroke="black" stroke-width="3"/>
<path d="M187.36 82.432L175 75" stroke="black" stroke-width="3"/>
<path d="M218 78.4221V64" stroke="black" stroke-width="3"/>
<path d="M217 78L229.048 85.9273" stroke="black" stroke-width="3"/>
<line x1="107.5" y1="34" x2="107.5" y2="48.2408" stroke="black" stroke-width="3"/>
<line x1="106.94" y1="45.831" x2="118.038" y2="54.7541" stroke="black" stroke-width="3"/>
<line x1="48.9671" y1="1.85343" x2="59.8526" y2="11.0354" stroke="black" stroke-width="3"/>
<line x1="14.8988" y1="46.2009" x2="2.89885" y2="55.1814" stroke="black" stroke-width="3"/>
<path d="M20.4907 144H13.4293V118.997H20.4907V128.896H25.9733V118.997H33.0347V144H25.9733V133.803H20.4907V144ZM43.0988 134.336C43.0988 136.697 43.2766 138.34 43.6322 139.264C44.0019 140.188 44.6419 140.651 45.5522 140.651C46.2206 140.651 46.7255 140.487 47.0668 140.16C47.4082 139.819 47.6642 139.129 47.8348 138.091C48.0197 137.038 48.1122 135.467 48.1122 133.376V128.235C48.1122 126.201 47.9131 124.686 47.5148 123.691C47.1166 122.695 46.4624 122.197 45.5522 122.197C44.6419 122.197 44.0019 122.688 43.6322 123.669C43.2766 124.636 43.0988 126.407 43.0988 128.981V134.336ZM45.1042 144.448C43.9237 144.448 42.8571 144.341 41.9042 144.128C40.9655 143.915 40.1548 143.616 39.4722 143.232C38.7895 142.848 38.1922 142.357 37.6802 141.76C37.1824 141.163 36.7771 140.523 36.4642 139.84C36.1655 139.157 35.9237 138.361 35.7388 137.451C35.5539 136.526 35.4259 135.609 35.3548 134.699C35.2837 133.774 35.2482 132.736 35.2482 131.584C35.2482 129.877 35.3335 128.391 35.5042 127.125C35.6891 125.86 36.0233 124.672 36.5068 123.563C36.9904 122.439 37.6304 121.529 38.4268 120.832C39.2375 120.135 40.2757 119.588 41.5415 119.189C42.8215 118.791 44.3291 118.592 46.0642 118.592C47.2588 118.592 48.3326 118.706 49.2855 118.933C50.2384 119.147 51.0562 119.445 51.7388 119.829C52.4215 120.213 53.0117 120.711 53.5095 121.323C54.0215 121.934 54.4268 122.588 54.7255 123.285C55.0384 123.968 55.2873 124.772 55.4722 125.696C55.6571 126.62 55.7851 127.538 55.8562 128.448C55.9273 129.358 55.9628 130.389 55.9628 131.541C55.9628 133.248 55.8704 134.734 55.6855 136C55.5006 137.266 55.1664 138.453 54.6828 139.563C54.1993 140.658 53.5522 141.554 52.7415 142.251C51.9308 142.933 50.8855 143.474 49.6055 143.872C48.3397 144.256 46.8393 144.448 45.1042 144.448ZM67.8433 144.448C66.3784 144.448 65.0771 144.306 63.9393 144.021C62.8158 143.737 61.8913 143.353 61.166 142.869C60.4549 142.386 59.8647 141.788 59.3953 141.077C58.9402 140.352 58.6202 139.591 58.4353 138.795C58.2504 137.998 58.158 137.116 58.158 136.149V118.997H65.7527V135.189C65.7527 136.996 65.9376 138.24 66.3073 138.923C66.6913 139.591 67.246 139.925 67.9713 139.925C68.3696 139.925 68.718 139.861 69.0167 139.733C69.3153 139.591 69.5927 139.356 69.8487 139.029C70.1047 138.688 70.2967 138.204 70.4247 137.579C70.5669 136.939 70.638 136.164 70.638 135.253V118.997H77.3793V136.277C77.3793 137.23 77.294 138.091 77.1233 138.859C76.9669 139.627 76.6682 140.373 76.2273 141.099C75.8007 141.81 75.2318 142.407 74.5207 142.891C73.8238 143.36 72.9064 143.737 71.7687 144.021C70.6451 144.306 69.3367 144.448 67.8433 144.448ZM87.6872 144.448C86.5921 144.448 85.5681 144.348 84.6152 144.149C83.6765 143.964 82.8872 143.716 82.2472 143.403C81.6072 143.09 81.0809 142.791 80.6685 142.507C80.2703 142.222 79.9361 141.938 79.6658 141.653L80.1992 136.469C80.7823 137.252 81.5645 137.934 82.5458 138.517C83.5272 139.086 84.5867 139.371 85.7245 139.371C86.8623 139.371 87.6801 139.25 88.1778 139.008C88.6898 138.766 88.9458 138.325 88.9458 137.685C88.9458 137.003 88.6543 136.42 88.0712 135.936C87.5023 135.452 86.5138 134.869 85.1058 134.187C84.5938 133.931 84.1601 133.703 83.8045 133.504C83.4489 133.291 82.9725 132.949 82.3752 132.48C81.7921 131.996 81.3156 131.499 80.9458 130.987C80.5761 130.46 80.2489 129.792 79.9645 128.981C79.6801 128.156 79.5378 127.275 79.5378 126.336C79.5378 121.259 82.4036 118.72 88.1352 118.72C89.0454 118.72 89.8987 118.82 90.6952 119.019C91.5058 119.204 92.1387 119.41 92.5938 119.637C93.0489 119.865 93.4614 120.135 93.8312 120.448C94.2152 120.747 94.4569 120.96 94.5565 121.088C94.6561 121.202 94.7272 121.294 94.7698 121.365L93.7032 125.483C93.1485 124.828 92.4516 124.345 91.6125 124.032C90.7876 123.705 89.9983 123.541 89.2445 123.541C87.4241 123.541 86.5138 124.11 86.5138 125.248C86.5138 125.547 86.5707 125.817 86.6845 126.059C86.7983 126.3 86.9832 126.521 87.2392 126.72C87.4952 126.919 87.7298 127.09 87.9432 127.232C88.1707 127.374 88.4765 127.552 88.8605 127.765C89.2587 127.964 89.5574 128.128 89.7565 128.256C91.8329 129.138 93.3547 130.183 94.3218 131.392C95.3032 132.601 95.7938 134.073 95.7938 135.808C95.7938 138.624 95.0969 140.772 93.7032 142.251C92.3236 143.716 90.3183 144.448 87.6872 144.448ZM113.18 144H98.0543V118.997H112.86L112.433 124.032L105.116 123.819V128.64H110.876V133.632L105.116 133.205V138.88L113.18 138.667V144ZM130.741 144H123.679V118.997H126.495C127.249 118.997 128.387 118.969 129.909 118.912C131.43 118.841 132.682 118.805 133.663 118.805C136.422 118.805 138.513 119.538 139.935 121.003C141.358 122.468 142.069 124.665 142.069 127.595C142.069 129.358 141.834 130.965 141.365 132.416C140.91 133.852 140.291 135.033 139.509 135.957C138.726 136.882 137.838 137.593 136.842 138.091C135.846 138.588 134.794 138.837 133.685 138.837C133.542 138.837 133.393 138.837 133.237 138.837C133.094 138.837 132.959 138.837 132.831 138.837C132.718 138.823 132.575 138.816 132.405 138.816C132.248 138.802 132.12 138.795 132.021 138.795C131.935 138.78 131.807 138.773 131.637 138.773C131.48 138.759 131.374 138.752 131.317 138.752C131.26 138.752 131.153 138.745 130.997 138.731C130.84 138.716 130.755 138.709 130.741 138.709V144ZM135.071 126.656C135.071 125.604 134.787 124.75 134.218 124.096C133.649 123.442 132.831 123.115 131.765 123.115H130.741V134.208H131.53C132.654 134.208 133.521 133.831 134.133 133.077C134.758 132.324 135.071 131.236 135.071 129.813V126.656ZM143.679 144V118.997H150.741V138.283H157.098V144H143.679ZM171.321 144L170.361 140.011H164.302L163.492 144H157.22L163.726 120.725L163.214 118.997H172.025L179.15 144H171.321ZM167.054 126.336L165.177 135.659H169.316L167.054 126.336ZM186.776 144H179.992V121.003L178.947 118.997H186.797L190.722 127.104L194.477 135.189L193.432 125.696V118.997H200.237V144H193.731L188.653 134.123L185.517 127.936L186.776 136.128V144ZM210.562 144.448C209.467 144.448 208.443 144.348 207.49 144.149C206.552 143.964 205.762 143.716 205.122 143.403C204.482 143.09 203.956 142.791 203.543 142.507C203.145 142.222 202.811 141.938 202.541 141.653L203.074 136.469C203.657 137.252 204.439 137.934 205.421 138.517C206.402 139.086 207.462 139.371 208.599 139.371C209.737 139.371 210.555 139.25 211.053 139.008C211.565 138.766 211.821 138.325 211.821 137.685C211.821 137.003 211.529 136.42 210.946 135.936C210.377 135.452 209.389 134.869 207.981 134.187C207.469 133.931 207.035 133.703 206.68 133.504C206.324 133.291 205.848 132.949 205.25 132.48C204.667 131.996 204.191 131.499 203.821 130.987C203.451 130.46 203.124 129.792 202.839 128.981C202.555 128.156 202.413 127.275 202.413 126.336C202.413 121.259 205.279 118.72 211.01 118.72C211.92 118.72 212.774 118.82 213.57 119.019C214.381 119.204 215.014 119.41 215.469 119.637C215.924 119.865 216.336 120.135 216.706 120.448C217.09 120.747 217.332 120.96 217.431 121.088C217.531 121.202 217.602 121.294 217.645 121.365L216.578 125.483C216.023 124.828 215.327 124.345 214.488 124.032C213.663 123.705 212.873 123.541 212.12 123.541C210.299 123.541 209.389 124.11 209.389 125.248C209.389 125.547 209.446 125.817 209.559 126.059C209.673 126.3 209.858 126.521 210.114 126.72C210.37 126.919 210.605 127.09 210.818 127.232C211.046 127.374 211.352 127.552 211.736 127.765C212.134 127.964 212.432 128.128 212.632 128.256C214.708 129.138 216.23 130.183 217.197 131.392C218.178 132.601 218.669 134.073 218.669 135.808C218.669 138.624 217.972 140.772 216.578 142.251C215.199 143.716 213.193 144.448 210.562 144.448Z" fill="black"/>
</svg>
