<svg width="20" height="20" viewBox="0 0 20 20" fill="none" xmlns="http://www.w3.org/2000/svg">
<path fill-rule="evenodd" clip-rule="evenodd" d="M6.48422 4.44367C6.48422 3.56426 6.83356 2.72088 7.45539 2.09905C8.07722 1.47722 8.92061 1.12788 9.80001 1.12788C10.6794 1.12788 11.5228 1.47722 12.1446 2.09905C12.7665 2.72088 13.1158 3.56426 13.1158 4.44367C13.1158 5.32307 12.7665 6.16645 12.1446 6.78828C11.5228 7.41011 10.6794 7.75946 9.80001 7.75946C8.92061 7.75946 8.07722 7.41011 7.45539 6.78828C6.83356 6.16645 6.48422 5.32307 6.48422 4.44367ZM9.80001 0.0226135C8.62747 0.0226135 7.50296 0.488402 6.67385 1.31751C5.84475 2.14662 5.37896 3.27113 5.37896 4.44367C5.37896 5.6162 5.84475 6.74071 6.67385 7.56982C7.50296 8.39893 8.62747 8.86472 9.80001 8.86472C10.9725 8.86472 12.0971 8.39893 12.9262 7.56982C13.7553 6.74071 14.2211 5.6162 14.2211 4.44367C14.2211 3.27113 13.7553 2.14662 12.9262 1.31751C12.0971 0.488402 10.9725 0.0226135 9.80001 0.0226135ZM15.9674 13.4516C17.2053 14.3579 17.99 15.9274 18.0784 18.8121H1.52159C1.61001 15.9384 2.39475 14.3579 3.62159 13.4516C5.00317 12.4568 7.03685 12.1805 9.80001 12.1805C12.5632 12.1805 14.6079 12.4679 15.9674 13.4516ZM9.80001 11.0752C7.03685 11.0752 4.66054 11.3405 2.98054 12.5674C1.25633 13.8163 0.405273 15.9716 0.405273 19.3647V19.9173H19.1947V19.3647C19.1947 15.9716 18.3437 13.8163 16.6195 12.5674C14.9395 11.3516 12.5632 11.0752 9.80001 11.0752Z" fill="#121212"/>
</svg>
